<svg width="32" height="32" viewBox="0 0 32 32" fill="none" xmlns="http://www.w3.org/2000/svg">
<path opacity="0.2" d="M27 6V20H22.4137C22.2824 19.9999 22.1523 20.0257 22.0309 20.0759C21.9095 20.1261 21.7992 20.1997 21.7062 20.2925L19.2925 22.7075C19.1996 22.8003 19.0892 22.8739 18.9678 22.9241C18.8465 22.9743 18.7164 23.0001 18.585 23H13.4137C13.2824 23.0001 13.1523 22.9743 13.0309 22.9241C12.9095 22.8739 12.7992 22.8003 12.7063 22.7075L10.2925 20.2925C10.1996 20.1997 10.0892 20.1261 9.96785 20.0759C9.84645 20.0257 9.71636 19.9999 9.585 20H5V6C5 5.73478 5.10536 5.48043 5.29289 5.29289C5.48043 5.10536 5.73478 5 6 5H26C26.2652 5 26.5196 5.10536 26.7071 5.29289C26.8946 5.48043 27 5.73478 27 6Z" fill="#757472"/>
<path d="M26 4H6C5.46957 4 4.96086 4.21071 4.58579 4.58579C4.21071 4.96086 4 5.46957 4 6V26C4 26.5304 4.21071 27.0391 4.58579 27.4142C4.96086 27.7893 5.46957 28 6 28H26C26.5304 28 27.0391 27.7893 27.4142 27.4142C27.7893 27.0391 28 26.5304 28 26V6C28 5.46957 27.7893 4.96086 27.4142 4.58579C27.0391 4.21071 26.5304 4 26 4ZM26 6V19H22.4125C22.15 18.9993 21.8899 19.0508 21.6474 19.1514C21.405 19.2521 21.1849 19.3999 21 19.5863L18.5863 22H13.4137L11 19.585C10.8147 19.3989 10.5944 19.2513 10.3517 19.1509C10.109 19.0505 9.84887 18.9992 9.58625 19H6V6H26ZM26 26H6V21H9.58625L12 23.415C12.1853 23.6011 12.4056 23.7487 12.6483 23.8491C12.891 23.9495 13.1511 24.0008 13.4137 24H18.5863C18.849 24.0008 19.1093 23.9494 19.352 23.8488C19.5947 23.7482 19.815 23.6003 20 23.4137L22.4137 21H26V26Z" fill="#757472"/>
</svg>
