<svg width="32" height="32" viewBox="0 0 32 32" fill="none" xmlns="http://www.w3.org/2000/svg">
<path opacity="0.2" d="M28 7.00016V22.0002C20 28.9289 14 15.0714 6 22.0002V7.00016C14 0.0714078 20 13.9289 28 7.00016Z" fill="#757472"/>
<path d="M5.345 6.25018C5.23742 6.34343 5.15099 6.45858 5.09149 6.58792C5.032 6.71726 5.0008 6.85781 5 7.00018V28.0002C5 28.2654 5.10536 28.5198 5.29289 28.7073C5.48043 28.8948 5.73478 29.0002 6 29.0002C6.26522 29.0002 6.51957 28.8948 6.70711 28.7073C6.89464 28.5198 7 28.2654 7 28.0002V22.4714C10.3487 19.8264 13.2337 21.2527 16.5562 22.8977C18.6062 23.9114 20.8137 25.0039 23.1812 25.0039C24.9225 25.0039 26.7487 24.4102 28.6587 22.7539C28.7663 22.6607 28.8528 22.5455 28.9123 22.4162C28.9718 22.2869 29.0029 22.1463 29.0037 22.0039V7.00018C29.0033 6.80824 28.9476 6.62048 28.8433 6.45933C28.7391 6.29817 28.5906 6.17043 28.4157 6.09135C28.2408 6.01227 28.0469 5.9852 27.857 6.01336C27.6672 6.04153 27.4894 6.12374 27.345 6.25018C23.845 9.27893 20.88 7.81143 17.4437 6.11018C13.8837 4.34518 9.8475 2.34893 5.345 6.25018ZM27 21.5314C23.6512 24.1764 20.7662 22.7489 17.4437 21.1052C14.3187 19.5614 10.8425 17.8389 7 20.0552V7.47393C10.3487 4.82893 13.2337 6.25518 16.5562 7.89893C19.6812 9.44268 23.1587 11.1652 27 8.94893V21.5314Z" fill="#757472"/>
</svg>
