<svg width="32" height="32" viewBox="0 0 32 32" fill="none" xmlns="http://www.w3.org/2000/svg">
<path opacity="0.2" d="M22 16C22 17.1867 21.6481 18.3467 20.9888 19.3334C20.3295 20.3201 19.3925 21.0892 18.2961 21.5433C17.1997 21.9974 15.9933 22.1162 14.8295 21.8847C13.6656 21.6532 12.5965 21.0818 11.7574 20.2426C10.9182 19.4035 10.3468 18.3344 10.1153 17.1705C9.88378 16.0067 10.0026 14.8003 10.4567 13.7039C10.9109 12.6075 11.6799 11.6705 12.6666 11.0112C13.6533 10.3519 14.8133 10 16 10C17.5913 10 19.1174 10.6321 20.2426 11.7574C21.3679 12.8826 22 14.4087 22 16Z" fill="#757472"/>
<path d="M27.7313 10.3949C29.1189 13.2971 29.3823 16.6105 28.4707 19.6956C27.5591 22.7806 25.537 25.4186 22.7947 27.1005C20.0524 28.7823 16.7843 29.3887 13.6212 28.8027C10.4581 28.2167 7.62419 26.4798 5.6664 23.9272C3.70862 21.3746 2.76575 18.1873 3.01978 14.9804C3.27382 11.7735 4.70674 8.77438 7.04199 6.56186C9.37724 4.34933 12.4493 3.08025 15.6652 2.99955C18.8811 2.91885 22.013 4.03225 24.4563 6.12486L27.29 3.28986C27.4776 3.10222 27.7321 2.9968 27.9975 2.9968C28.2629 2.9968 28.5174 3.10222 28.705 3.28986C28.8926 3.4775 28.9981 3.73199 28.9981 3.99736C28.9981 4.26272 28.8926 4.51722 28.705 4.70486L16.705 16.7049C16.5174 16.8925 16.2629 16.9979 15.9975 16.9979C15.7321 16.9979 15.4776 16.8925 15.29 16.7049C15.1024 16.5172 14.9969 16.2627 14.9969 15.9974C14.9969 15.732 15.1024 15.4775 15.29 15.2899L18.755 11.8249C17.8159 11.2038 16.6948 10.9178 15.573 11.0133C14.4512 11.1087 13.3944 11.58 12.5738 12.3508C11.7531 13.1215 11.2166 14.1467 11.0511 15.2603C10.8857 16.374 11.1008 17.5108 11.6619 18.4869C12.2229 19.463 13.097 20.2212 14.1426 20.6387C15.1881 21.0563 16.344 21.1087 17.4231 20.7876C18.5022 20.4664 19.4413 19.7905 20.0884 18.8692C20.7355 17.9479 21.0527 16.8351 20.9888 15.7111C20.9814 15.5798 20.9999 15.4483 21.0433 15.3241C21.0868 15.2 21.1542 15.0856 21.2419 14.9875C21.3295 14.8894 21.4356 14.8096 21.5541 14.7525C21.6726 14.6954 21.8012 14.6622 21.9325 14.6549C22.1977 14.6399 22.458 14.731 22.6561 14.908C22.7542 14.9956 22.834 15.1017 22.8911 15.2202C22.9482 15.3387 22.9814 15.4673 22.9888 15.5986C23.0799 17.1896 22.6255 18.764 21.7006 20.0618C20.7757 21.3595 19.4357 22.3028 17.9021 22.7358C16.3684 23.1687 14.733 23.0654 13.266 22.443C11.799 21.8205 10.5883 20.7161 9.83402 19.3124C9.07973 17.9086 8.82699 16.2895 9.11758 14.7226C9.40816 13.1558 10.2247 11.735 11.4322 10.695C12.6397 9.65508 14.1659 9.05828 15.7585 9.00324C17.3511 8.94821 18.9149 9.43825 20.1913 10.3924L23.035 7.54861C20.951 5.81835 18.3012 4.91906 15.5946 5.02345C12.8879 5.12784 10.3153 6.22856 8.37073 8.11419C6.4262 9.99982 5.24688 12.5374 5.0593 15.2396C4.87172 17.9417 5.6891 20.6179 7.35445 22.7541C9.0198 24.8904 11.4157 26.336 14.0819 26.8133C16.7482 27.2907 19.4968 26.7662 21.7999 25.3405C24.103 23.9148 25.7981 21.6884 26.5597 19.089C27.3214 16.4897 27.0958 13.7005 25.9263 11.2574C25.8119 11.018 25.7973 10.743 25.8856 10.4929C25.974 10.2428 26.1581 10.038 26.3975 9.92361C26.6369 9.80923 26.9118 9.79463 27.162 9.883C27.4121 9.97138 27.6169 10.1555 27.7313 10.3949Z" fill="#757472"/>
</svg>
