<svg width="136" height="26" viewBox="0 0 136 26" fill="none" xmlns="http://www.w3.org/2000/svg">
<path d="M16.7867 20.8057C18.927 20.8057 23.5643 19.6642 24.5631 15.0269C24.5876 14.9132 24.6124 14.7978 24.6374 14.6813C25.0138 12.9282 25.4459 10.9159 25.8473 10.2469C26.4517 9.3636 27.8135 8.66204 28.6692 8.22123C29.1265 7.98561 29.4393 7.82449 29.4144 7.74994C29.3856 7.66326 28.7723 7.32188 28.1302 7.17919C28.0969 7.17178 28.0631 7.16435 28.0291 7.15685C27.4078 7.01998 26.6847 6.8607 26.3467 6.39442C26.3189 6.36261 26.2914 6.3312 26.2643 6.30017C25.3188 5.21765 24.7888 4.61084 22.7082 4.61084C19.8254 4.61084 18.3615 6.2965 16.7776 8.12028C16.5684 8.36118 16.3571 8.60448 16.1402 8.84663C15.734 7.83197 15.0422 6.60843 14.0679 6.60843C12.0675 6.60845 9.22791 5.95783 7.06294 5.46177C5.36725 5.07325 4.0854 4.77954 3.94477 4.96755C3.61191 5.41258 5.08632 8.52423 5.08632 8.52423C5.08632 8.52423 0.702103 8.74874 0.472619 9.12006C0.243131 9.49138 2.59657 11.847 4.30148 13.172C5.46382 14.0754 6.62085 14.8239 7.4981 15.2798C4.4925 17.3539 1.76173 19.255 1.66173 19.5216C1.35591 20.3369 7.02274 24.2642 7.58332 23.5168C8.99946 21.6286 9.78251 21.2798 10.2817 21.0574C10.3106 21.0445 10.3386 21.0321 10.3657 21.0198C11.4411 20.531 12.751 20.6115 14.364 20.7107C15.1053 20.7562 15.9106 20.8057 16.7867 20.8057Z" fill="#141414"/>
<path d="M36.6133 20.6016C36.5664 20.5547 36.543 20.4297 36.543 20.2266C36.543 19.9609 36.5664 19.8281 36.6133 19.8281C36.7539 19.8281 36.9336 19.8047 37.1523 19.7578C37.3867 19.7109 37.6055 19.6484 37.8086 19.5703C38.0273 19.4922 38.1523 19.4062 38.1836 19.3125C38.293 19 38.3477 18.2891 38.3477 17.1797V8.32031C38.3477 7.36719 38.293 6.72656 38.1836 6.39844C38.1523 6.27344 38.0352 6.17188 37.832 6.09375C37.6445 6 37.4258 5.92969 37.1758 5.88281C36.9414 5.83594 36.7461 5.8125 36.5898 5.8125C36.5273 5.8125 36.4961 5.69531 36.4961 5.46094C36.4961 5.24219 36.5273 5.10156 36.5898 5.03906C37.1055 5.07031 37.6211 5.10156 38.1367 5.13281C38.6523 5.14844 39.1758 5.15625 39.707 5.15625C40.0508 5.15625 40.5273 5.14844 41.1367 5.13281C41.7461 5.10156 42.4805 5.07031 43.3398 5.03906C45.0742 4.99219 46.3867 4.96875 47.2773 4.96875C47.3086 5.20312 47.3555 5.48438 47.418 5.8125C47.4805 6.14062 47.5586 6.50781 47.6523 6.91406L47.957 8.29688C47.8789 8.375 47.7148 8.41406 47.4648 8.41406C47.293 8.41406 47.1836 8.35938 47.1367 8.25C46.6211 6.85938 45.6211 6.16406 44.1367 6.16406H42.918C41.7461 6.16406 41.1523 6.26562 41.1367 6.46875C41.043 6.90625 40.9961 7.53906 40.9961 8.36719V12.0469C40.9961 12.1406 41.3398 12.1875 42.0273 12.1875H43.3398C44.2305 12.1875 44.7695 12.1484 44.957 12.0703C45.1289 11.9922 45.2617 11.7188 45.3555 11.25C45.4023 11.0469 45.4492 10.8516 45.4961 10.6641C45.5117 10.5547 45.6367 10.5 45.8711 10.5C46.0898 10.5 46.2383 10.5391 46.3164 10.6172V15.0469C46.2539 15.1094 46.1055 15.1406 45.8711 15.1406C45.668 15.1406 45.543 15.0781 45.4961 14.9531C45.4336 14.7344 45.3789 14.5547 45.332 14.4141C45.2852 14.2578 45.2461 14.125 45.2148 14.0156C45.1367 13.8438 45.0898 13.75 45.0742 13.7344C45.0586 13.7031 44.9805 13.6406 44.8398 13.5469C44.6211 13.4219 43.9023 13.3594 42.6836 13.3594C41.5586 13.3594 40.9961 13.4219 40.9961 13.5469V17.1797C40.9961 18.0391 41.0664 18.6719 41.207 19.0781C41.2695 19.2812 41.8008 19.3828 42.8008 19.3828H43.668C44.9023 19.3828 45.832 19.2188 46.457 18.8906C46.707 18.7656 46.9883 18.4922 47.3008 18.0703C47.6133 17.6484 47.8555 17.1719 48.0273 16.6406C48.0586 16.5469 48.168 16.5 48.3555 16.5C48.6992 16.5 48.918 16.5469 49.0117 16.6406L48.2617 18.7266C48.168 18.9766 48.0664 19.2969 47.957 19.6875C47.8477 20.0625 47.7773 20.3672 47.7461 20.6016C47.1211 20.6016 45.832 20.5781 43.8789 20.5312C42.8945 20.5 42.0586 20.4844 41.3711 20.4844C40.6836 20.4844 40.1367 20.4922 39.7305 20.5078L36.6133 20.6016Z" fill="#141414"/>
<path d="M52.9023 20.6953C52.1211 20.6953 51.4805 20.4844 50.9805 20.0625C50.4961 19.625 50.2539 19.0312 50.2539 18.2812C50.2539 17.7656 50.418 17.2969 50.7461 16.875C51.0898 16.4531 51.5664 16.0938 52.1758 15.7969C52.3945 15.6875 52.5898 15.6016 52.7617 15.5391C52.9492 15.4609 53.1211 15.3906 53.2773 15.3281C53.8242 15.1562 54.2773 15.0156 54.6367 14.9062C55.0117 14.7969 55.2773 14.7188 55.4336 14.6719C55.5742 14.5938 55.6445 14.4688 55.6445 14.2969V13.0078C55.6445 12.4609 55.5195 12.0312 55.2695 11.7188C55.0195 11.4062 54.6836 11.25 54.2617 11.25C53.793 11.25 53.4258 11.3984 53.1602 11.6953C52.8945 11.9766 52.7617 12.3828 52.7617 12.9141C52.7617 13.2266 52.6445 13.4609 52.4102 13.6172C52.1758 13.7578 51.9102 13.8281 51.6133 13.8281C51.0352 13.8281 50.6289 13.6406 50.3945 13.2656C50.3945 12.8906 50.5352 12.5234 50.8164 12.1641C51.0977 11.7891 51.4648 11.4531 51.918 11.1562C52.3867 10.8594 52.9023 10.625 53.4648 10.4531C54.0273 10.2656 54.5898 10.1719 55.1523 10.1719C56.1211 10.1719 56.8477 10.4297 57.332 10.9453C57.8164 11.4453 58.0586 12.3125 58.0586 13.5469V18.1641C58.0586 18.8047 58.3164 19.125 58.832 19.125C59.0664 19.125 59.332 19.0234 59.6289 18.8203C59.7227 18.8359 59.7695 18.9219 59.7695 19.0781C59.7695 19.375 59.7227 19.6094 59.6289 19.7812C59.3945 19.9688 59.082 20.1641 58.6914 20.3672C58.3008 20.5703 57.9258 20.6719 57.5664 20.6719C57.207 20.6719 56.8555 20.5391 56.5117 20.2734C56.168 20.0078 55.9414 19.7188 55.832 19.4062C55.707 19.5156 55.6133 19.5938 55.5508 19.6406C55.4883 19.6875 55.3867 19.7656 55.2461 19.875C54.918 20.0938 54.5586 20.2891 54.168 20.4609C53.7773 20.6172 53.3555 20.6953 52.9023 20.6953ZM54.0977 19.1719C54.5195 19.1719 54.8789 19.0625 55.1758 18.8438C55.4883 18.625 55.6445 18.375 55.6445 18.0938V15.7031L54.1445 16.2188C53.7852 16.375 53.4648 16.5625 53.1836 16.7812C52.9023 17 52.7617 17.3125 52.7617 17.7188C52.7617 18.2188 52.8867 18.5859 53.1367 18.8203C53.3867 19.0547 53.707 19.1719 54.0977 19.1719Z" fill="#141414"/>
<path d="M60.9414 20.625C60.8789 20.5625 60.8477 20.4141 60.8477 20.1797C60.8477 19.9453 60.8789 19.8281 60.9414 19.8281C61.0664 19.8281 61.2383 19.8047 61.457 19.7578C61.6914 19.6953 61.9023 19.625 62.0898 19.5469C62.293 19.4531 62.4023 19.375 62.418 19.3125C62.5273 18.875 62.582 18.3047 62.582 17.6016V13.7812C62.582 13.0312 62.457 12.5312 62.207 12.2812C62.0664 12.1094 61.8945 11.9922 61.6914 11.9297C61.4883 11.8516 61.3008 11.8047 61.1289 11.7891C60.9727 11.7734 60.8945 11.75 60.8945 11.7188C60.8945 11.2812 60.9336 11.0469 61.0117 11.0156C61.4648 10.9844 61.957 10.9141 62.4883 10.8047C63.0352 10.6797 63.668 10.5469 64.3867 10.4062C64.6211 10.3594 64.7695 10.3281 64.832 10.3125C64.9102 10.2812 64.957 10.2656 64.9727 10.2656C65.0352 10.2656 65.0898 10.3203 65.1367 10.4297C65.1836 10.5234 65.207 10.6094 65.207 10.6875C65.1133 11.3438 65.0664 11.7188 65.0664 11.8125C65.3477 11.3906 65.7305 11.0156 66.2148 10.6875C66.6992 10.3438 67.1914 10.1719 67.6914 10.1719C68.5508 10.1719 69.1914 10.4297 69.6133 10.9453C69.6133 12.2734 69.2383 12.9375 68.4883 12.9375C68.2227 12.9375 67.918 12.7812 67.5742 12.4688C67.2305 12.1562 66.8945 12 66.5664 12C66.2383 12 65.957 12.1172 65.7227 12.3516C65.4883 12.5859 65.3086 12.875 65.1836 13.2188C65.0742 13.5625 65.0195 13.9141 65.0195 14.2734V17.2031C65.0195 18.1875 65.0742 18.8906 65.1836 19.3125C65.2148 19.375 65.3242 19.4531 65.5117 19.5469C65.6992 19.625 65.9023 19.6953 66.1211 19.7578C66.3398 19.8047 66.4961 19.8281 66.5898 19.8281C66.6367 19.8281 66.6602 19.9453 66.6602 20.1797C66.6758 20.3984 66.6758 20.5469 66.6602 20.625C66.582 20.6094 66.3555 20.5859 65.9805 20.5547C65.6211 20.5391 65.2305 20.5234 64.8086 20.5078C64.4023 20.4766 64.0742 20.4609 63.8242 20.4609C63.5742 20.4609 63.2383 20.4766 62.8164 20.5078C62.3945 20.5234 61.9961 20.5391 61.6211 20.5547C61.2617 20.5859 61.0352 20.6094 60.9414 20.625Z" fill="#141414"/>
<path d="M70.293 20.6016C70.2305 20.5391 70.1992 20.3906 70.1992 20.1562C70.1992 19.9375 70.2305 19.8281 70.293 19.8281C70.418 19.8281 70.582 19.7969 70.7852 19.7344C70.9883 19.6719 71.1758 19.5938 71.3477 19.5C71.5352 19.4062 71.6367 19.3281 71.6523 19.2656C71.7148 19 71.7617 18.7188 71.793 18.4219C71.8242 18.125 71.8398 17.8281 71.8398 17.5312V7.78125C71.8398 7.1875 71.793 6.65625 71.6992 6.1875C71.6367 5.9375 71.2461 5.8125 70.5273 5.8125H70.293C70.1992 5.8125 70.1523 5.71875 70.1523 5.53125C70.1523 5.28125 70.1992 5.15625 70.293 5.15625C71.1523 5.07812 71.9258 4.94531 72.6133 4.75781C73.3164 4.57031 73.7852 4.42969 74.0195 4.33594L74.1836 4.26562H74.2305C74.293 4.26562 74.3555 4.3125 74.418 4.40625C74.4961 4.5 74.543 4.57812 74.5586 4.64062C74.3711 5.21875 74.2773 5.95312 74.2773 6.84375V17.1562C74.2773 18.1406 74.332 18.8438 74.4414 19.2656C74.4727 19.3281 74.5742 19.4062 74.7461 19.5C74.918 19.5938 75.1055 19.6719 75.3086 19.7344C75.5117 19.7969 75.6523 19.8281 75.7305 19.8281C75.7773 19.8281 75.8008 19.9375 75.8008 20.1562C75.8164 20.375 75.8086 20.5234 75.7773 20.6016C75.293 20.5703 74.8008 20.5391 74.3008 20.5078C73.8008 20.4766 73.3867 20.4609 73.0586 20.4609C72.5742 20.4609 72.0742 20.4766 71.5586 20.5078C71.0586 20.5391 70.6367 20.5703 70.293 20.6016Z" fill="#141414"/>
<path d="M78.8477 25.7344C78.4414 25.7344 78.1289 25.625 77.9102 25.4062C77.6914 25.1875 77.582 24.9375 77.582 24.6562C77.582 24.25 77.7305 23.9453 78.0273 23.7422C79.6523 23.7422 80.7227 23.1016 81.2383 21.8203L81.8711 20.2266L78.3789 12.0938C78.2227 11.7344 77.9961 11.4688 77.6992 11.2969C77.4023 11.1094 77.0742 11.0156 76.7148 11.0156C76.6523 11.0156 76.6211 10.9062 76.6211 10.6875C76.6211 10.4219 76.6445 10.2812 76.6914 10.2656L77.957 10.3359C78.6914 10.3828 79.2461 10.4062 79.6211 10.4062C79.9805 10.4062 80.4727 10.3828 81.0977 10.3359C81.7383 10.2891 82.1367 10.2656 82.293 10.2656C82.3086 10.3281 82.3164 10.3984 82.3164 10.4766C82.332 10.5391 82.3398 10.6094 82.3398 10.6875C82.3398 10.9062 82.3086 11.0156 82.2461 11.0156C82.1523 11.0156 82.0039 11.0469 81.8008 11.1094C81.5977 11.1562 81.4102 11.2266 81.2383 11.3203C81.0664 11.3984 80.9805 11.4844 80.9805 11.5781V11.7188C80.9805 11.8438 81.1602 12.3516 81.5195 13.2422C81.8945 14.1328 82.4414 15.4062 83.1602 17.0625L84.0742 14.7422L84.918 12.5859C85.0117 12.3203 85.0586 12.0781 85.0586 11.8594C85.0586 11.6562 84.9336 11.4688 84.6836 11.2969C84.4336 11.1094 84.0586 11.0156 83.5586 11.0156C83.4961 11.0156 83.4648 10.8984 83.4648 10.6641C83.4648 10.4609 83.4961 10.3281 83.5586 10.2656C83.7461 10.2656 84.1289 10.2891 84.707 10.3359C85.3008 10.3828 85.7773 10.4062 86.1367 10.4062C86.4648 10.4062 86.8711 10.3828 87.3555 10.3359C87.8242 10.2891 88.168 10.2656 88.3867 10.2656C88.4492 10.3438 88.4805 10.4688 88.4805 10.6406C88.4805 10.8906 88.4492 11.0156 88.3867 11.0156C88.2461 11.0156 88.0508 11.0547 87.8008 11.1328C87.5508 11.1953 87.3164 11.2969 87.0977 11.4375C86.8789 11.5625 86.7227 11.7344 86.6289 11.9531L82.3398 22.3125C81.4023 24.5938 80.2383 25.7344 78.8477 25.7344Z" fill="#141414"/>
<path d="M94.082 20.6016C94.0352 20.5547 94.0117 20.4297 94.0117 20.2266C94.0117 19.9609 94.0352 19.8281 94.082 19.8281C94.2227 19.8281 94.4023 19.8047 94.6211 19.7578C94.8555 19.7109 95.0742 19.6484 95.2773 19.5703C95.4961 19.4922 95.6211 19.4062 95.6523 19.3125C95.7617 19 95.8164 18.2891 95.8164 17.1797V8.32031C95.8164 7.36719 95.7617 6.72656 95.6523 6.39844C95.6211 6.27344 95.5039 6.17188 95.3008 6.09375C95.1133 6 94.8945 5.92969 94.6445 5.88281C94.4102 5.83594 94.2148 5.8125 94.0586 5.8125C93.9961 5.8125 93.9648 5.69531 93.9648 5.46094C93.9648 5.24219 93.9961 5.10156 94.0586 5.03906C95.0898 5.08594 96.1289 5.10938 97.1758 5.10938L99.1914 5.08594H100.598C101.77 5.08594 102.879 5.36719 103.926 5.92969C104.457 6.22656 104.887 6.64844 105.215 7.19531C105.559 7.74219 105.73 8.375 105.73 9.09375C105.73 9.64062 105.566 10.1641 105.238 10.6641C104.91 11.1484 104.598 11.4922 104.301 11.6953C104.02 11.8828 103.777 12.0156 103.574 12.0938C103.449 12.1406 103.418 12.1875 103.48 12.2344C103.871 12.2969 104.293 12.5078 104.746 12.8672C105.215 13.2109 105.621 13.6641 105.965 14.2266C106.309 14.7891 106.48 15.4297 106.48 16.1484C106.48 17.0391 106.23 17.8203 105.73 18.4922C105.246 19.1484 104.559 19.6562 103.668 20.0156C102.777 20.3594 101.73 20.5312 100.527 20.5312L97.1992 20.5078L94.082 20.6016ZM99.8711 11.8125C100.449 11.8125 100.887 11.7656 101.184 11.6719C102.324 11.4219 102.895 10.6562 102.895 9.375C102.895 7.26562 101.996 6.21094 100.199 6.21094C99.4805 6.21094 98.9805 6.25 98.6992 6.32812C98.5742 6.35938 98.5117 6.44531 98.5117 6.58594L98.4648 8.83594V11.5781C98.4648 11.7344 98.9336 11.8125 99.8711 11.8125ZM100.246 19.3594C100.59 19.3594 100.926 19.3281 101.254 19.2656C101.582 19.1875 101.941 19.0547 102.332 18.8672C102.707 18.6953 103.012 18.3984 103.246 17.9766C103.496 17.5391 103.621 17.0156 103.621 16.4062C103.621 15.4062 103.34 14.5859 102.777 13.9453C102.23 13.2891 101.34 12.9609 100.105 12.9609C99.8867 12.9609 99.6523 12.9766 99.4023 13.0078C99.168 13.0234 98.918 13.0469 98.6523 13.0781C98.5273 13.1562 98.4648 13.3125 98.4648 13.5469V17.9062C98.4648 18.5469 98.5586 18.9531 98.7461 19.125C98.9492 19.2812 99.4492 19.3594 100.246 19.3594Z" fill="#141414"/>
<path d="M107.746 20.6016C107.684 20.5391 107.652 20.3906 107.652 20.1562C107.652 19.9375 107.684 19.8281 107.746 19.8281C107.871 19.8281 108.035 19.7969 108.238 19.7344C108.441 19.6719 108.629 19.5938 108.801 19.5C108.988 19.4062 109.09 19.3281 109.105 19.2656C109.168 19 109.215 18.7188 109.246 18.4219C109.277 18.125 109.293 17.8281 109.293 17.5312V13.7578C109.293 13.0234 109.168 12.5234 108.918 12.2578C108.777 12.0859 108.598 11.9688 108.379 11.9062C108.176 11.8438 107.988 11.8047 107.816 11.7891C107.66 11.7734 107.582 11.75 107.582 11.7188C107.582 11.25 107.621 11.0156 107.699 11.0156C108.199 10.9531 108.746 10.8672 109.34 10.7578C109.949 10.6328 110.496 10.5156 110.98 10.4062L111.73 10.2188C111.84 10.2188 111.895 10.375 111.895 10.6875C111.895 10.8906 111.863 11.1875 111.801 11.5781C111.754 11.9531 111.73 12.3281 111.73 12.7031V17.1562C111.73 18.1406 111.785 18.8438 111.895 19.2656C111.926 19.3281 112.027 19.4062 112.199 19.5C112.371 19.5938 112.559 19.6719 112.762 19.7344C112.965 19.7969 113.105 19.8281 113.184 19.8281C113.23 19.8281 113.254 19.9375 113.254 20.1562C113.27 20.375 113.262 20.5234 113.23 20.6016C112.746 20.5703 112.254 20.5391 111.754 20.5078C111.254 20.4766 110.84 20.4609 110.512 20.4609C110.027 20.4609 109.527 20.4766 109.012 20.5078C108.512 20.5391 108.09 20.5703 107.746 20.6016ZM110.324 7.78125C109.934 7.78125 109.598 7.64062 109.316 7.35938C109.035 7.07812 108.895 6.74219 108.895 6.35156C108.895 5.96094 109.035 5.63281 109.316 5.36719C109.598 5.08594 109.934 4.94531 110.324 4.94531C110.715 4.94531 111.043 5.08594 111.309 5.36719C111.59 5.63281 111.73 5.96094 111.73 6.35156C111.73 6.74219 111.59 7.07812 111.309 7.35938C111.043 7.64062 110.715 7.78125 110.324 7.78125Z" fill="#141414"/>
<path d="M114.496 20.625C114.434 20.5625 114.402 20.4141 114.402 20.1797C114.402 19.9453 114.434 19.8281 114.496 19.8281C114.621 19.8281 114.793 19.8047 115.012 19.7578C115.246 19.6953 115.457 19.625 115.645 19.5469C115.848 19.4531 115.957 19.375 115.973 19.3125C116.082 18.875 116.137 18.3047 116.137 17.6016V13.7812C116.137 13.0312 116.012 12.5312 115.762 12.2812C115.621 12.1094 115.449 11.9922 115.246 11.9297C115.043 11.8516 114.855 11.8047 114.684 11.7891C114.527 11.7734 114.449 11.75 114.449 11.7188C114.449 11.2812 114.488 11.0469 114.566 11.0156C115.02 10.9844 115.512 10.9141 116.043 10.8047C116.59 10.6797 117.223 10.5469 117.941 10.4062C118.176 10.3594 118.324 10.3281 118.387 10.3125C118.465 10.2812 118.512 10.2656 118.527 10.2656C118.59 10.2656 118.645 10.3203 118.691 10.4297C118.738 10.5234 118.762 10.6094 118.762 10.6875C118.668 11.3438 118.621 11.7188 118.621 11.8125C118.902 11.3906 119.285 11.0156 119.77 10.6875C120.254 10.3438 120.746 10.1719 121.246 10.1719C122.105 10.1719 122.746 10.4297 123.168 10.9453C123.168 12.2734 122.793 12.9375 122.043 12.9375C121.777 12.9375 121.473 12.7812 121.129 12.4688C120.785 12.1562 120.449 12 120.121 12C119.793 12 119.512 12.1172 119.277 12.3516C119.043 12.5859 118.863 12.875 118.738 13.2188C118.629 13.5625 118.574 13.9141 118.574 14.2734V17.2031C118.574 18.1875 118.629 18.8906 118.738 19.3125C118.77 19.375 118.879 19.4531 119.066 19.5469C119.254 19.625 119.457 19.6953 119.676 19.7578C119.895 19.8047 120.051 19.8281 120.145 19.8281C120.191 19.8281 120.215 19.9453 120.215 20.1797C120.23 20.3984 120.23 20.5469 120.215 20.625C120.137 20.6094 119.91 20.5859 119.535 20.5547C119.176 20.5391 118.785 20.5234 118.363 20.5078C117.957 20.4766 117.629 20.4609 117.379 20.4609C117.129 20.4609 116.793 20.4766 116.371 20.5078C115.949 20.5234 115.551 20.5391 115.176 20.5547C114.816 20.5859 114.59 20.6094 114.496 20.625Z" fill="#141414"/>
<path d="M131.699 20.6719C131.605 20.6719 131.559 20.5391 131.559 20.2734V19.875C131.559 19.8281 131.543 19.7969 131.512 19.7812C131.496 19.7656 131.48 19.7656 131.465 19.7812C130.73 20.3594 129.918 20.6484 129.027 20.6484C128.184 20.6484 127.402 20.4375 126.684 20.0156C125.98 19.5781 125.41 18.9922 124.973 18.2578C124.535 17.5234 124.316 16.6875 124.316 15.75C124.316 14.7188 124.559 13.7812 125.043 12.9375C125.543 12.0781 126.207 11.3984 127.035 10.8984C127.863 10.3828 128.762 10.125 129.73 10.125C130.387 10.125 130.957 10.2344 131.441 10.4531C131.52 10.4531 131.559 10.3281 131.559 10.0781V7.875C131.559 7.28125 131.512 6.75 131.418 6.28125C131.355 6.03125 130.949 5.90625 130.199 5.90625H130.012C129.918 5.90625 129.871 5.78125 129.871 5.53125C129.871 5.28125 129.918 5.15625 130.012 5.15625C130.48 5.10938 130.934 5.04688 131.371 4.96875C131.824 4.89062 132.199 4.8125 132.496 4.73438C132.918 4.60938 133.246 4.5 133.48 4.40625C133.73 4.3125 133.871 4.26562 133.902 4.26562H133.949C134.012 4.26562 134.074 4.3125 134.137 4.40625C134.199 4.48438 134.23 4.5625 134.23 4.64062C134.074 5.21875 133.996 5.95312 133.996 6.84375V17.1562C133.996 17.5156 134.012 17.8984 134.043 18.3047C134.074 18.6953 134.129 18.9375 134.207 19.0312C134.285 19.1094 134.41 19.1719 134.582 19.2188C134.77 19.2656 134.949 19.2969 135.121 19.3125C135.309 19.3125 135.434 19.3125 135.496 19.3125C135.527 19.3438 135.543 19.4375 135.543 19.5938C135.543 19.9062 135.496 20.0625 135.402 20.0625C135.184 20.0781 134.902 20.1094 134.559 20.1562C134.23 20.2031 133.91 20.25 133.598 20.2969C132.973 20.4062 132.496 20.4922 132.168 20.5547C131.855 20.6328 131.699 20.6719 131.699 20.6719ZM129.777 19.3594C130.309 19.3594 130.738 19.2266 131.066 18.9609C131.395 18.6797 131.559 18.3281 131.559 17.9062V12.9844C131.559 12.7656 131.496 12.5234 131.371 12.2578C131.262 11.9922 131.059 11.7578 130.762 11.5547C130.48 11.3516 130.066 11.25 129.52 11.25C128.691 11.25 128.066 11.6016 127.645 12.3047C127.223 13.0078 127.012 13.9531 127.012 15.1406C127.012 16.4688 127.254 17.5078 127.738 18.2578C128.223 18.9922 128.902 19.3594 129.777 19.3594Z" fill="#141414"/>
</svg>
