<svg width="168" height="27" viewBox="0 0 168 27" fill="none" xmlns="http://www.w3.org/2000/svg">
<path d="M42.7776 21.6235C41.5098 21.6235 40.3515 21.3026 39.3028 20.6609C38.2698 20.0191 37.4402 19.08 36.8141 17.8435C36.2037 16.5913 35.8985 15.0574 35.8985 13.2417C35.8985 11.4574 36.2037 9.9313 36.8141 8.66348C37.4402 7.39565 38.3089 6.42522 39.4202 5.75217C40.5315 5.06348 41.8307 4.71913 43.3176 4.71913C44.1002 4.71913 44.9141 4.82087 45.7594 5.02435C46.6202 5.21217 47.5202 5.50956 48.4594 5.91652L48.2715 9.76696H46.8394L46.3698 6.92609L46.7924 7.3487C46.1976 7.09826 45.6028 6.91043 45.0081 6.78522C44.4133 6.66 43.8654 6.59739 43.3646 6.59739C42.3472 6.59739 41.4707 6.85565 40.735 7.37217C40.015 7.87304 39.4594 8.60087 39.0681 9.55565C38.6768 10.4948 38.4811 11.6296 38.4811 12.96C38.4811 14.4157 38.6924 15.6443 39.115 16.6461C39.5533 17.6322 40.1402 18.3835 40.8759 18.9C41.6272 19.4009 42.4646 19.6513 43.3881 19.6513C44.0768 19.6513 44.7968 19.5026 45.5481 19.2052C46.2994 18.9078 47.035 18.4617 47.755 17.867L48.6941 19.2757C47.755 20.0739 46.7768 20.6687 45.7594 21.06C44.742 21.4357 43.7481 21.6235 42.7776 21.6235Z" fill="#ADACA8"/>
<path d="M55.9785 8.71043C57.7315 8.71043 59.1089 9.25826 60.1106 10.3539C61.1124 11.4339 61.6132 12.9678 61.6132 14.9557C61.6132 16.3017 61.3706 17.4757 60.8854 18.4774C60.4002 19.4791 59.7037 20.2539 58.7959 20.8017C57.9037 21.3496 56.8237 21.6235 55.5559 21.6235C53.8185 21.6235 52.4645 21.0913 51.4941 20.027C50.5237 18.947 50.0385 17.413 50.0385 15.4252C50.0385 14.0322 50.2732 12.8348 50.7428 11.833C51.2124 10.8313 51.8854 10.0643 52.7619 9.53217C53.6541 8.98435 54.7263 8.71043 55.9785 8.71043ZM55.8611 10.4243C54.7498 10.4243 53.9045 10.847 53.3254 11.6922C52.7619 12.5217 52.4802 13.727 52.4802 15.3078C52.4802 16.8574 52.7541 18.0157 53.3019 18.7826C53.8498 19.5339 54.648 19.9096 55.6967 19.9096C56.4637 19.9096 57.0976 19.7217 57.5985 19.3461C58.115 18.9704 58.4985 18.4226 58.7489 17.7026C59.015 16.967 59.148 16.0904 59.148 15.073C59.148 13.5235 58.8663 12.3652 58.3028 11.5983C57.7393 10.8157 56.9254 10.4243 55.8611 10.4243Z" fill="#ADACA8"/>
<path d="M63.4016 21.3887V20.1443L65.4208 19.6748L65.139 20.0739V10.3304L65.4442 10.753L63.4016 10.26V9.01565L66.9703 8.8513L67.2755 11.1287L66.9703 11.0348C67.6747 10.2991 68.3634 9.72783 69.0364 9.32087C69.7251 8.91391 70.4608 8.71043 71.2434 8.71043C71.7442 8.71043 72.2764 8.7887 72.8399 8.94522L72.6755 12.6783H71.2434L70.9381 10.1896L71.1964 10.6826C71.0868 10.6513 70.9695 10.6278 70.8442 10.6122C70.7347 10.5965 70.6251 10.5887 70.5155 10.5887C69.9364 10.5887 69.3651 10.7687 68.8016 11.1287C68.2538 11.473 67.7451 11.9191 67.2755 12.467L67.4868 11.7861V20.0739L67.1816 19.6748L69.6703 20.1443V21.3887H63.4016Z" fill="#ADACA8"/>
<path d="M73.5074 26.7887V25.5443L75.5969 25.0043L75.2448 25.427V10.4009L75.55 10.753L73.5074 10.26V9.01565L77.0761 8.8513L77.3578 10.8939L77.0761 10.7296C77.8117 10.0565 78.5317 9.55565 79.2361 9.22696C79.9561 8.88261 80.6761 8.71043 81.3961 8.71043C82.2726 8.71043 83.0552 8.95304 83.7439 9.43826C84.4482 9.92348 85.0039 10.6278 85.4108 11.5513C85.8178 12.4591 86.0213 13.5861 86.0213 14.9322C86.0213 16.3878 85.7708 17.6165 85.27 18.6183C84.7691 19.62 84.0648 20.3791 83.1569 20.8957C82.2491 21.3965 81.1848 21.647 79.9639 21.647C79.5569 21.647 79.1265 21.6078 78.6726 21.5296C78.2187 21.467 77.7491 21.373 77.2639 21.2478L77.5926 20.9661V25.427L77.3108 25.0513L79.6352 25.5443V26.7887H73.5074ZM79.6821 19.933C80.9813 19.933 81.9517 19.5104 82.5935 18.6652C83.2508 17.82 83.5795 16.6539 83.5795 15.167C83.5795 14.1809 83.4465 13.3435 83.1804 12.6548C82.9143 11.9504 82.5543 11.4104 82.1004 11.0348C81.6465 10.6591 81.1221 10.4713 80.5274 10.4713C80.0265 10.4713 79.5021 10.6043 78.9543 10.8704C78.4065 11.1365 77.8587 11.5435 77.3108 12.0913L77.5926 11.4104V20.0035L77.2874 19.5104C78.1639 19.7922 78.9621 19.933 79.6821 19.933Z" fill="#ADACA8"/>
<path d="M93.9243 8.71043C95.6773 8.71043 97.0547 9.25826 98.0565 10.3539C99.0582 11.4339 99.5591 12.9678 99.5591 14.9557C99.5591 16.3017 99.3165 17.4757 98.8312 18.4774C98.346 19.4791 97.6495 20.2539 96.7417 20.8017C95.8495 21.3496 94.7695 21.6235 93.5017 21.6235C91.7643 21.6235 90.4104 21.0913 89.4399 20.027C88.4695 18.947 87.9843 17.413 87.9843 15.4252C87.9843 14.0322 88.2191 12.8348 88.6886 11.833C89.1582 10.8313 89.8312 10.0643 90.7078 9.53217C91.5999 8.98435 92.6721 8.71043 93.9243 8.71043ZM93.8069 10.4243C92.6956 10.4243 91.8504 10.847 91.2712 11.6922C90.7078 12.5217 90.426 13.727 90.426 15.3078C90.426 16.8574 90.6999 18.0157 91.2478 18.7826C91.7956 19.5339 92.5939 19.9096 93.6425 19.9096C94.4095 19.9096 95.0434 19.7217 95.5443 19.3461C96.0608 18.9704 96.4443 18.4226 96.6947 17.7026C96.9608 16.967 97.0938 16.0904 97.0938 15.073C97.0938 13.5235 96.8121 12.3652 96.2486 11.5983C95.6852 10.8157 94.8712 10.4243 93.8069 10.4243Z" fill="#ADACA8"/>
<path d="M101.347 21.3887V20.1443L103.367 19.6748L103.085 20.0739V10.3304L103.39 10.753L101.347 10.26V9.01565L104.916 8.8513L105.221 11.1287L104.916 11.0348C105.62 10.2991 106.309 9.72783 106.982 9.32087C107.671 8.91391 108.407 8.71043 109.189 8.71043C109.69 8.71043 110.222 8.7887 110.786 8.94522L110.621 12.6783H109.189L108.884 10.1896L109.142 10.6826C109.033 10.6513 108.915 10.6278 108.79 10.6122C108.68 10.5965 108.571 10.5887 108.461 10.5887C107.882 10.5887 107.311 10.7687 106.747 11.1287C106.2 11.473 105.691 11.9191 105.221 12.467L105.433 11.7861V20.0739L105.127 19.6748L107.616 20.1443V21.3887H101.347Z" fill="#ADACA8"/>
<path d="M121.184 20.1209L120.832 19.6278L122.945 20.1209V21.3652L119.376 21.5296L119.048 19.2757L119.236 19.3461C118.562 20.113 117.835 20.6843 117.052 21.06C116.269 21.4357 115.51 21.6235 114.775 21.6235C113.867 21.6235 113.084 21.3261 112.427 20.7313C111.785 20.1365 111.464 19.2443 111.464 18.0548C111.464 17.147 111.66 16.4426 112.051 15.9417C112.442 15.4252 112.99 15.0574 113.695 14.8383C114.399 14.6191 115.229 14.5096 116.183 14.5096H119.048L118.836 14.7678V12.7487C118.836 11.9348 118.625 11.3557 118.202 11.0113C117.78 10.6513 117.193 10.4713 116.442 10.4713C116.05 10.4713 115.636 10.5104 115.197 10.5887C114.775 10.667 114.313 10.7922 113.812 10.9643L114.141 10.6357L113.882 12.7252H112.333L112.145 9.60261C113.1 9.30522 113.976 9.08609 114.775 8.94522C115.589 8.7887 116.34 8.71043 117.029 8.71043C118.343 8.71043 119.361 9 120.081 9.57913C120.816 10.1583 121.184 11.0739 121.184 12.3261V20.1209ZM113.835 17.8904C113.835 18.5635 114 19.0643 114.329 19.393C114.657 19.7061 115.072 19.8626 115.573 19.8626C116.074 19.8626 116.622 19.7061 117.216 19.393C117.827 19.0643 118.414 18.6339 118.977 18.1017L118.836 18.6887V15.7774L119.048 16.0122H116.559C115.526 16.0122 114.814 16.1687 114.422 16.4817C114.031 16.7948 113.835 17.2643 113.835 17.8904Z" fill="#ADACA8"/>
<path d="M128.457 21.6235C127.549 21.6235 126.845 21.3496 126.344 20.8017C125.859 20.2383 125.616 19.4009 125.616 18.2896V10.213L125.945 10.5417H123.597V9.27391L125.992 8.8513L125.616 9.29739V6.17478L127.964 5.77565V9.29739L127.683 8.94522H131.322L131.251 10.5417H127.683L127.964 10.213V17.9609C127.964 18.6183 128.082 19.0957 128.316 19.393C128.567 19.6904 128.927 19.8391 129.396 19.8391C129.663 19.8391 129.952 19.8 130.265 19.7217C130.594 19.6278 130.946 19.4948 131.322 19.3226L131.791 20.6609C130.602 21.3026 129.49 21.6235 128.457 21.6235Z" fill="#ADACA8"/>
<path d="M137.005 19.9565L136.793 19.6748L138.765 20.1443V21.3887H132.919V20.1443L134.891 19.6748L134.657 19.9565V10.4948L134.868 10.7061L132.919 10.26V9.01565L137.005 8.87478V19.9565ZM135.713 6.57391C135.291 6.57391 134.938 6.44087 134.657 6.17478C134.391 5.9087 134.258 5.53304 134.258 5.04783C134.258 4.54696 134.398 4.1713 134.68 3.92087C134.962 3.65478 135.314 3.52174 135.737 3.52174C136.175 3.52174 136.527 3.65478 136.793 3.92087C137.075 4.1713 137.216 4.54696 137.216 5.04783C137.216 5.5487 137.067 5.93217 136.77 6.19826C136.488 6.4487 136.136 6.57391 135.713 6.57391Z" fill="#ADACA8"/>
<path d="M146.177 8.71043C147.93 8.71043 149.308 9.25826 150.309 10.3539C151.311 11.4339 151.812 12.9678 151.812 14.9557C151.812 16.3017 151.569 17.4757 151.084 18.4774C150.599 19.4791 149.902 20.2539 148.995 20.8017C148.102 21.3496 147.022 21.6235 145.755 21.6235C144.017 21.6235 142.663 21.0913 141.693 20.027C140.722 18.947 140.237 17.413 140.237 15.4252C140.237 14.0322 140.472 12.8348 140.942 11.833C141.411 10.8313 142.084 10.0643 142.961 9.53217C143.853 8.98435 144.925 8.71043 146.177 8.71043ZM146.06 10.4243C144.948 10.4243 144.103 10.847 143.524 11.6922C142.961 12.5217 142.679 13.727 142.679 15.3078C142.679 16.8574 142.953 18.0157 143.501 18.7826C144.048 19.5339 144.847 19.9096 145.895 19.9096C146.662 19.9096 147.296 19.7217 147.797 19.3461C148.314 18.9704 148.697 18.4226 148.948 17.7026C149.214 16.967 149.347 16.0904 149.347 15.073C149.347 13.5235 149.065 12.3652 148.502 11.5983C147.938 10.8157 147.124 10.4243 146.06 10.4243Z" fill="#ADACA8"/>
<path d="M153.6 21.3887V20.1443L155.666 19.6513L155.338 20.0504V10.3304L155.666 10.753L153.6 10.26V9.01565L157.169 8.8513L157.474 11.1287L157.169 11.0113C157.936 10.2287 158.742 9.64957 159.587 9.27391C160.448 8.89826 161.262 8.71043 162.029 8.71043C163.078 8.71043 163.946 9.0313 164.635 9.67304C165.324 10.3148 165.66 11.3087 165.645 12.6548V20.0504L165.386 19.6748L167.382 20.1443V21.3887H161.653V20.1443L163.602 19.6748L163.297 20.0739V13.1478C163.297 12.24 163.093 11.5748 162.686 11.1522C162.279 10.7296 161.739 10.5183 161.066 10.5183C160.534 10.5183 159.955 10.667 159.329 10.9643C158.719 11.2461 158.116 11.6843 157.521 12.2791L157.686 11.8565V20.0739L157.427 19.6983L159.329 20.1443V21.3887H153.6Z" fill="#ADACA8"/>
<path d="M27.2008 16.72C27.4281 15.7912 27.5592 14.8246 27.5832 13.8316C22.0404 17.8946 13.5481 16.4174 10.1402 9.56794C8.76148 6.79697 6.21129 5.29257 3.55867 5.04935C2.21467 6.72168 1.2609 8.72098 0.835569 10.909C5.25851 10.622 9.82454 12.7784 12.1193 17.3904C15.0702 23.3213 23.4679 23.4968 26.664 17.6944L27.2008 16.72Z" fill="#ADACA8"/>
<path d="M20.4124 25.4296C18.5256 26.432 16.3727 27 14.0872 27C6.95557 27 1.11555 21.4701 0.621094 14.4643C3.85191 14.0803 7.28261 15.5754 8.96626 18.9592C11.278 23.6055 15.9292 25.7797 20.4124 25.4296Z" fill="#ADACA8"/>
<path d="M13.2932 7.99915C11.8284 5.05516 9.43819 3.11174 6.75046 2.16573C8.86269 0.795655 11.382 0 14.0872 0C20.1692 0 25.3119 4.02202 27.0006 9.55141C23.3655 14.0432 16.014 13.4676 13.2932 7.99915Z" fill="#ADACA8"/>
</svg>
