<svg width="155" height="21" viewBox="0 0 155 21" fill="none" xmlns="http://www.w3.org/2000/svg">
<path d="M0.410156 20.7448V3.88272H11.3771V6.44331H3.46476V11.0211H10.809V13.5817H3.46476V18.1842H11.4429V20.7448H0.410156Z" fill="#ADACA8"/>
<path d="M28.814 3.88272V20.7448H26.097L18.1517 9.25914H18.0117V20.7448H14.9571V3.88272H17.6906L25.6276 15.3766H25.7758V3.88272H28.814Z" fill="#ADACA8"/>
<path d="M31.865 6.44331V3.88272H45.3185V6.44331H40.1067V20.7448H37.0768V6.44331H31.865Z" fill="#ADACA8"/>
<path d="M48.3757 20.7448V3.88272H59.3426V6.44331H51.4303V11.0211H58.7745V13.5817H51.4303V18.1842H59.4085V20.7448H48.3757Z" fill="#ADACA8"/>
<path d="M62.9227 20.7448V3.88272H69.2459C70.5413 3.88272 71.6281 4.10776 72.5064 4.55786C73.3901 5.00795 74.057 5.63918 74.5071 6.45154C74.9627 7.25842 75.1905 8.19977 75.1905 9.27561C75.1905 10.3569 74.9599 11.2955 74.4989 12.0914C74.0433 12.8818 73.3709 13.4939 72.4817 13.9275C71.5925 14.3556 70.5002 14.5697 69.2048 14.5697H64.7011V12.0338H68.7931C69.5506 12.0338 70.1708 11.9295 70.6538 11.7209C71.1369 11.5069 71.4937 11.1967 71.7242 10.7906C71.9602 10.3789 72.0782 9.8739 72.0782 9.27561C72.0782 8.67731 71.9602 8.16684 71.7242 7.74419C71.4882 7.31605 71.1286 6.99221 70.6456 6.77265C70.1626 6.5476 69.5396 6.43508 68.7766 6.43508H65.9773V20.7448H62.9227ZM71.6336 13.1041L75.808 20.7448H72.3993L68.2991 13.1041H71.6336Z" fill="#ADACA8"/>
<path d="M78.4659 20.7448V3.88272H84.7891C86.0845 3.88272 87.1713 4.12423 88.0496 4.60726C88.9333 5.09029 89.6002 5.75445 90.0503 6.59975C90.5059 7.43955 90.7337 8.39463 90.7337 9.46498C90.7337 10.5463 90.5059 11.5069 90.0503 12.3467C89.5947 13.1865 88.9223 13.8479 88.0331 14.3309C87.1439 14.8085 86.0489 15.0472 84.748 15.0472H80.5572V12.536H84.3363C85.0938 12.536 85.714 12.4043 86.1971 12.1408C86.6801 11.8774 87.0369 11.5151 87.2674 11.054C87.5034 10.593 87.6214 10.0633 87.6214 9.46498C87.6214 8.86668 87.5034 8.33974 87.2674 7.88416C87.0369 7.42858 86.6773 7.07454 86.1888 6.82205C85.7058 6.56407 85.0828 6.43508 84.3198 6.43508H81.5205V20.7448H78.4659Z" fill="#ADACA8"/>
<path d="M93.8506 20.7448V3.88272H100.174C101.469 3.88272 102.556 4.10776 103.434 4.55786C104.318 5.00795 104.985 5.63918 105.435 6.45154C105.891 7.25842 106.118 8.19977 106.118 9.27561C106.118 10.3569 105.888 11.2955 105.427 12.0914C104.971 12.8818 104.299 13.4939 103.41 13.9275C102.52 14.3556 101.428 14.5697 100.133 14.5697H95.629V12.0338H99.721C100.479 12.0338 101.099 11.9295 101.582 11.7209C102.065 11.5069 102.422 11.1967 102.652 10.7906C102.888 10.3789 103.006 9.8739 103.006 9.27561C103.006 8.67731 102.888 8.16684 102.652 7.74419C102.416 7.31605 102.057 6.99221 101.574 6.77265C101.091 6.5476 100.468 6.43508 99.7046 6.43508H96.9052V20.7448H93.8506ZM102.562 13.1041L106.736 20.7448H103.327L99.227 13.1041H102.562Z" fill="#ADACA8"/>
<path d="M137.202 8.51813C137.125 7.79908 136.801 7.23921 136.23 6.83852C135.665 6.43782 134.929 6.23748 134.024 6.23748C133.387 6.23748 132.841 6.33353 132.385 6.52565C131.93 6.71776 131.581 6.97848 131.34 7.30782C131.098 7.63716 130.975 8.01315 130.969 8.4358C130.969 8.78709 131.049 9.09173 131.208 9.34971C131.373 9.60769 131.595 9.82725 131.875 10.0084C132.155 10.184 132.465 10.3322 132.805 10.453C133.146 10.5737 133.489 10.6753 133.834 10.7576L135.415 11.1528C136.052 11.301 136.664 11.5014 137.251 11.7539C137.844 12.0064 138.374 12.3247 138.84 12.7089C139.312 13.0932 139.686 13.557 139.96 14.1004C140.235 14.6438 140.372 15.2805 140.372 16.0105C140.372 16.9986 140.119 17.8686 139.614 18.6205C139.109 19.367 138.379 19.9516 137.424 20.3743C136.475 20.7914 135.325 21 133.974 21C132.663 21 131.524 20.7969 130.558 20.3907C129.597 19.9845 128.845 19.3917 128.302 18.6123C127.764 17.8329 127.473 16.8833 127.429 15.7635H130.434C130.478 16.3509 130.659 16.8394 130.977 17.2291C131.296 17.6188 131.71 17.9097 132.221 18.1018C132.737 18.2939 133.313 18.39 133.95 18.39C134.614 18.39 135.196 18.2912 135.695 18.0936C136.2 17.8905 136.595 17.6106 136.881 17.2538C137.166 16.8915 137.312 16.4689 137.317 15.9858C137.312 15.5467 137.183 15.1845 136.93 14.899C136.678 14.6081 136.324 14.3666 135.868 14.1745C135.418 13.9769 134.891 13.8012 134.287 13.6476L132.369 13.1535C130.98 12.7968 129.882 12.2561 129.075 11.5316C128.274 10.8015 127.873 9.83274 127.873 8.62517C127.873 7.63167 128.142 6.76167 128.68 6.01517C129.224 5.26868 129.962 4.68959 130.895 4.27792C131.828 3.86076 132.885 3.65218 134.065 3.65218C135.262 3.65218 136.31 3.86076 137.21 4.27792C138.116 4.68959 138.827 5.26319 139.343 5.99871C139.859 6.72874 140.125 7.56855 140.141 8.51813H137.202Z" fill="#ADACA8"/>
<path d="M143.559 20.7448V3.88272H154.526V6.44331H146.613V11.0211H153.957V13.5817H146.613V18.1842H154.591V20.7448H143.559Z" fill="#ADACA8"/>
<path d="M120.775 3.66084C120.775 5.68266 119.136 7.32168 117.114 7.32168C115.092 7.32168 113.453 5.68266 113.453 3.66084C113.453 1.63901 115.092 0 117.114 0C119.136 0 120.775 1.63901 120.775 3.66084Z" fill="#ADACA8"/>
<path d="M119.555 12.2028C119.555 13.5507 118.462 14.6434 117.114 14.6434C115.766 14.6434 114.674 13.5507 114.674 12.2028C114.674 10.8549 115.766 9.76224 117.114 9.76224C118.462 9.76224 119.555 10.8549 119.555 12.2028Z" fill="#ADACA8"/>
<path d="M118.945 18.9143C118.945 19.9252 118.125 20.7448 117.114 20.7448C116.103 20.7448 115.284 19.9252 115.284 18.9143C115.284 17.9034 116.103 17.0839 117.114 17.0839C118.125 17.0839 118.945 17.9034 118.945 18.9143Z" fill="#ADACA8"/>
</svg>
