<svg width="175" height="25" viewBox="0 0 175 25" fill="none" xmlns="http://www.w3.org/2000/svg">
<path d="M59.6903 10.8186V11.716C59.6903 12.9498 59.5295 14.0566 59.208 15.0362C58.8864 16.0158 58.4265 16.8496 57.8283 17.5376C57.2375 18.2255 56.5271 18.7527 55.6971 19.1192C54.867 19.4781 53.9472 19.6576 52.9377 19.6576C51.9357 19.6576 51.0196 19.4781 50.1896 19.1192C49.367 18.7527 48.6528 18.2255 48.0471 17.5376C47.4414 16.8496 46.9703 16.0158 46.6338 15.0362C46.3048 14.0566 46.1402 12.9498 46.1402 11.716V10.8186C46.1402 9.58477 46.3048 8.48177 46.6338 7.50964C46.9628 6.53003 47.4265 5.69624 48.0247 5.00827C48.6304 4.31282 49.3445 3.78562 50.1671 3.42668C50.9972 3.06026 51.9132 2.87705 52.9153 2.87705C53.9248 2.87705 54.8446 3.06026 55.6746 3.42668C56.5047 3.78562 57.2188 4.31282 57.8171 5.00827C58.4153 5.69624 58.8752 6.53003 59.1967 7.50964C59.5258 8.48177 59.6903 9.58477 59.6903 10.8186ZM56.8748 11.716V10.7962C56.8748 9.88389 56.7851 9.08001 56.6056 8.38456C56.4336 7.68163 56.1757 7.09462 55.8317 6.6235C55.4952 6.14492 55.0801 5.78597 54.5866 5.54668C54.093 5.29991 53.5359 5.17652 52.9153 5.17652C52.2946 5.17652 51.7412 5.29991 51.2552 5.54668C50.7691 5.78597 50.3541 6.14492 50.0101 6.6235C49.6736 7.09462 49.4156 7.68163 49.2361 8.38456C49.0566 9.08001 48.9669 9.88389 48.9669 10.7962V11.716C48.9669 12.6283 49.0566 13.4359 49.2361 14.1388C49.4156 14.8418 49.6773 15.4363 50.0213 15.9223C50.3728 16.4009 50.7915 16.7636 51.2776 17.0104C51.7637 17.2497 52.317 17.3693 52.9377 17.3693C53.5658 17.3693 54.123 17.2497 54.609 17.0104C55.0951 16.7636 55.5064 16.4009 55.8429 15.9223C56.1794 15.4363 56.4336 14.8418 56.6056 14.1388C56.7851 13.4359 56.8748 12.6283 56.8748 11.716Z" fill="#ADACA8"/>
<path d="M64.951 9.60721V19.4332H62.2477V7.29652H64.8276L64.951 9.60721ZM68.6638 7.218L68.6414 9.73059C68.4769 9.70068 68.2974 9.67825 68.103 9.66329C67.916 9.64833 67.7291 9.64086 67.5421 9.64086C67.0785 9.64086 66.671 9.70816 66.3195 9.84276C65.968 9.96989 65.6726 10.1568 65.4334 10.4036C65.2015 10.6429 65.0221 10.9345 64.8949 11.2785C64.7678 11.6225 64.693 12.0076 64.6706 12.4339L64.0537 12.4787C64.0537 11.716 64.1284 11.0093 64.278 10.3587C64.4276 9.70816 64.6519 9.13609 64.951 8.64255C65.2576 8.14901 65.639 7.76389 66.0951 7.48721C66.5588 7.21052 67.0935 7.07218 67.6992 7.07218C67.8637 7.07218 68.0394 7.08714 68.2264 7.11705C68.4208 7.14696 68.5666 7.18061 68.6638 7.218Z" fill="#ADACA8"/>
<path d="M77.9066 7.29652H80.3631V19.0967C80.3631 20.1885 80.1313 21.1158 79.6676 21.8785C79.204 22.6413 78.5571 23.2208 77.7271 23.6171C76.897 24.0209 75.9361 24.2229 74.8443 24.2229C74.3807 24.2229 73.8647 24.1556 73.2964 24.0209C72.7356 23.8863 72.1897 23.6695 71.6587 23.3704C71.1353 23.0787 70.6978 22.6936 70.3464 22.215L71.6139 20.6222C72.0476 21.1382 72.5262 21.5158 73.0496 21.7551C73.5731 21.9944 74.1227 22.1141 74.6985 22.1141C75.3192 22.1141 75.8464 21.9982 76.2801 21.7663C76.7213 21.542 77.0616 21.2092 77.3009 20.768C77.5401 20.3268 77.6598 19.7884 77.6598 19.1528V10.0447L77.9066 7.29652ZM69.6621 13.4995V13.2639C69.6621 12.3441 69.7743 11.5066 69.9986 10.7513C70.223 9.98858 70.5445 9.33426 70.9633 8.78837C71.3821 8.235 71.8906 7.8125 72.4888 7.52086C73.087 7.22174 73.7638 7.07218 74.5191 7.07218C75.3042 7.07218 75.9735 7.21426 76.5269 7.49842C77.0877 7.78259 77.5551 8.19013 77.929 8.72107C78.3029 9.24452 78.5945 9.87267 78.8039 10.6055C79.0208 11.3309 79.1816 12.1385 79.2862 13.0284V13.7799C79.189 14.6473 79.0245 15.44 78.7927 16.1579C78.5609 16.8758 78.2543 17.4964 77.8729 18.0199C77.4915 18.5434 77.0204 18.9472 76.4596 19.2313C75.9062 19.5155 75.2519 19.6576 74.4966 19.6576C73.7563 19.6576 73.087 19.5043 72.4888 19.1977C71.898 18.8911 71.3895 18.4611 70.9633 17.9077C70.5445 17.3544 70.223 16.7038 69.9986 15.956C69.7743 15.2007 69.6621 14.3819 69.6621 13.4995ZM72.3654 13.2639V13.4995C72.3654 14.0528 72.4178 14.5688 72.5224 15.0474C72.6346 15.526 72.8029 15.9485 73.0272 16.3149C73.259 16.6739 73.5507 16.958 73.9021 17.1674C74.2611 17.3693 74.6836 17.4703 75.1696 17.4703C75.8053 17.4703 76.325 17.3357 76.7288 17.0665C77.1401 16.7973 77.4541 16.4346 77.671 15.9784C77.8953 15.5148 78.0524 14.9988 78.1421 14.4305V12.4002C78.0973 11.959 78.0038 11.5477 77.8617 11.1664C77.7271 10.785 77.5439 10.4522 77.3121 10.1681C77.0803 9.87641 76.7886 9.65207 76.4371 9.49504C76.0857 9.33052 75.6707 9.24826 75.1921 9.24826C74.706 9.24826 74.2835 9.35296 73.9246 9.56234C73.5656 9.77172 73.2702 10.0596 73.0384 10.426C72.8141 10.7925 72.6458 11.2187 72.5337 11.7048C72.4215 12.1908 72.3654 12.7106 72.3654 13.2639Z" fill="#ADACA8"/>
<path d="M90.0096 16.9992V11.2112C90.0096 10.7775 89.9311 10.4036 89.7741 10.0895C89.617 9.77546 89.3777 9.53243 89.0562 9.36043C88.7421 9.18844 88.3458 9.10244 87.8672 9.10244C87.426 9.10244 87.0446 9.17722 86.7231 9.32678C86.4015 9.47634 86.151 9.67825 85.9715 9.9325C85.7921 10.1867 85.7023 10.4746 85.7023 10.7962H83.0103C83.0103 10.3176 83.1262 9.85398 83.358 9.4053C83.5898 8.95662 83.9263 8.55655 84.3675 8.20509C84.8087 7.85363 85.3359 7.57694 85.9491 7.37504C86.5623 7.17313 87.2503 7.07218 88.013 7.07218C88.9253 7.07218 89.7329 7.22548 90.4359 7.53207C91.1463 7.83867 91.7034 8.3023 92.1072 8.92297C92.5185 9.53616 92.7241 10.3064 92.7241 11.2337V16.629C92.7241 17.1824 92.7615 17.6796 92.8363 18.1208C92.9185 18.5546 93.0345 18.9322 93.184 19.2538V19.4332H90.4134C90.2863 19.1416 90.1854 18.7714 90.1106 18.3228C90.0433 17.8666 90.0096 17.4254 90.0096 16.9992ZM90.4022 12.0525L90.4246 13.7238H88.4841C87.9831 13.7238 87.5419 13.7724 87.1605 13.8696C86.7791 13.9594 86.4613 14.094 86.2071 14.2734C85.9528 14.4529 85.7621 14.6698 85.635 14.924C85.5079 15.1783 85.4443 15.4662 85.4443 15.7877C85.4443 16.1093 85.5191 16.4047 85.6687 16.6739C85.8182 16.9356 86.0351 17.1412 86.3193 17.2908C86.6109 17.4404 86.9624 17.5151 87.3736 17.5151C87.927 17.5151 88.4093 17.403 88.8206 17.1786C89.2394 16.9468 89.5684 16.6664 89.8077 16.3374C90.047 16.0009 90.1741 15.683 90.1891 15.3839L91.064 16.5841C90.9743 16.8907 90.821 17.2198 90.6041 17.5712C90.3873 17.9227 90.1031 18.2592 89.7516 18.5807C89.4076 18.8948 88.9926 19.1528 88.5066 19.3547C88.028 19.5566 87.4746 19.6576 86.8465 19.6576C86.0538 19.6576 85.3471 19.5005 84.7265 19.1865C84.1058 18.8649 83.6197 18.4349 83.2683 17.8965C82.9168 17.3506 82.7411 16.7337 82.7411 16.0457C82.7411 15.4026 82.8607 14.8343 83.1 14.3407C83.3468 13.8397 83.7057 13.421 84.1768 13.0845C84.6554 12.7479 85.2387 12.4937 85.9267 12.3217C86.6146 12.1422 87.3998 12.0525 88.2822 12.0525H90.4022Z" fill="#ADACA8"/>
<path d="M98.2316 9.88763V19.4332H95.5283V7.29652H98.0746L98.2316 9.88763ZM97.7493 12.9162L96.8744 12.905C96.8819 12.045 97.0015 11.2561 97.2333 10.5382C97.4726 9.82033 97.8016 9.2034 98.2204 8.68742C98.6467 8.17144 99.1552 7.77511 99.7459 7.49842C100.337 7.21426 100.995 7.07218 101.72 7.07218C102.303 7.07218 102.831 7.15444 103.302 7.31895C103.78 7.47599 104.188 7.73398 104.524 8.09292C104.868 8.45186 105.13 8.91923 105.31 9.49504C105.489 10.0634 105.579 10.7625 105.579 11.5926V19.4332H102.864V11.5814C102.864 10.9981 102.778 10.5382 102.606 10.2017C102.442 9.85772 102.199 9.61468 101.877 9.4726C101.563 9.32304 101.17 9.24826 100.699 9.24826C100.236 9.24826 99.8207 9.34548 99.4543 9.5399C99.0878 9.73433 98.7775 9.9998 98.5233 10.3363C98.2765 10.6728 98.0858 11.0617 97.9512 11.5029C97.8166 11.9441 97.7493 12.4152 97.7493 12.9162Z" fill="#ADACA8"/>
<path d="M111.232 7.29652V19.4332H108.518V7.29652H111.232ZM108.338 4.11091C108.338 3.69963 108.473 3.35938 108.742 3.09017C109.019 2.81349 109.4 2.67515 109.886 2.67515C110.365 2.67515 110.742 2.81349 111.019 3.09017C111.296 3.35938 111.434 3.69963 111.434 4.11091C111.434 4.51472 111.296 4.85123 111.019 5.12044C110.742 5.38964 110.365 5.52425 109.886 5.52425C109.4 5.52425 109.019 5.38964 108.742 5.12044C108.473 4.85123 108.338 4.51472 108.338 4.11091Z" fill="#ADACA8"/>
<path d="M123.582 17.2796V19.4332H114.541V17.2796H123.582ZM123.335 8.97906L115.461 19.4332H113.711V17.6946L121.54 7.29652H123.335V8.97906ZM122.292 7.29652V9.45017H113.846V7.29652H122.292Z" fill="#ADACA8"/>
<path d="M132.589 16.9992V11.2112C132.589 10.7775 132.511 10.4036 132.353 10.0895C132.196 9.77546 131.957 9.53243 131.636 9.36043C131.322 9.18844 130.925 9.10244 130.447 9.10244C130.005 9.10244 129.624 9.17722 129.302 9.32678C128.981 9.47634 128.73 9.67825 128.551 9.9325C128.371 10.1867 128.282 10.4746 128.282 10.7962H125.59C125.59 10.3176 125.706 9.85398 125.937 9.4053C126.169 8.95662 126.506 8.55655 126.947 8.20509C127.388 7.85363 127.915 7.57694 128.529 7.37504C129.142 7.17313 129.83 7.07218 130.592 7.07218C131.505 7.07218 132.312 7.22548 133.015 7.53207C133.726 7.83867 134.283 8.3023 134.687 8.92297C135.098 9.53616 135.304 10.3064 135.304 11.2337V16.629C135.304 17.1824 135.341 17.6796 135.416 18.1208C135.498 18.5546 135.614 18.9322 135.763 19.2538V19.4332H132.993C132.866 19.1416 132.765 18.7714 132.69 18.3228C132.623 17.8666 132.589 17.4254 132.589 16.9992ZM132.982 12.0525L133.004 13.7238H131.064C130.563 13.7238 130.121 13.7724 129.74 13.8696C129.359 13.9594 129.041 14.094 128.787 14.2734C128.532 14.4529 128.342 14.6698 128.214 14.924C128.087 15.1783 128.024 15.4662 128.024 15.7877C128.024 16.1093 128.099 16.4047 128.248 16.6739C128.398 16.9356 128.615 17.1412 128.899 17.2908C129.19 17.4404 129.542 17.5151 129.953 17.5151C130.506 17.5151 130.989 17.403 131.4 17.1786C131.819 16.9468 132.148 16.6664 132.387 16.3374C132.626 16.0009 132.754 15.683 132.769 15.3839L133.643 16.5841C133.554 16.8907 133.4 17.2198 133.184 17.5712C132.967 17.9227 132.683 18.2592 132.331 18.5807C131.987 18.8948 131.572 19.1528 131.086 19.3547C130.607 19.5566 130.054 19.6576 129.426 19.6576C128.633 19.6576 127.927 19.5005 127.306 19.1865C126.685 18.8649 126.199 18.4349 125.848 17.8965C125.496 17.3506 125.32 16.7337 125.32 16.0457C125.32 15.4026 125.44 14.8343 125.679 14.3407C125.926 13.8397 126.285 13.421 126.756 13.0845C127.235 12.7479 127.818 12.4937 128.506 12.3217C129.194 12.1422 129.979 12.0525 130.862 12.0525H132.982Z" fill="#ADACA8"/>
<path d="M143.694 7.29652V9.2707H136.851V7.29652H143.694ZM138.826 4.32404H141.529V16.0794C141.529 16.4533 141.581 16.7412 141.686 16.9431C141.798 17.1375 141.951 17.2684 142.146 17.3357C142.34 17.403 142.568 17.4366 142.83 17.4366C143.017 17.4366 143.197 17.4254 143.369 17.403C143.541 17.3805 143.679 17.3581 143.784 17.3357L143.795 19.3996C143.57 19.4669 143.309 19.5267 143.01 19.579C142.718 19.6314 142.381 19.6576 142 19.6576C141.379 19.6576 140.83 19.5491 140.351 19.3323C139.873 19.1079 139.499 18.7453 139.229 18.2442C138.96 17.7432 138.826 17.0777 138.826 16.2476V4.32404Z" fill="#ADACA8"/>
<path d="M148.674 7.29652V19.4332H145.96V7.29652H148.674ZM145.78 4.11091C145.78 3.69963 145.915 3.35938 146.184 3.09017C146.461 2.81349 146.842 2.67515 147.328 2.67515C147.807 2.67515 148.184 2.81349 148.461 3.09017C148.738 3.35938 148.876 3.69963 148.876 4.11091C148.876 4.51472 148.738 4.85123 148.461 5.12044C148.184 5.38964 147.807 5.52425 147.328 5.52425C146.842 5.52425 146.461 5.38964 146.184 5.12044C145.915 4.85123 145.78 4.51472 145.78 4.11091Z" fill="#ADACA8"/>
<path d="M151.119 13.4995V13.2415C151.119 12.3666 151.247 11.5552 151.501 10.8074C151.755 10.0521 152.121 9.39782 152.6 8.84445C153.086 8.28361 153.677 7.84989 154.372 7.54329C155.075 7.22922 155.868 7.07218 156.75 7.07218C157.64 7.07218 158.433 7.22922 159.128 7.54329C159.831 7.84989 160.426 8.28361 160.912 8.84445C161.398 9.39782 161.768 10.0521 162.022 10.8074C162.276 11.5552 162.404 12.3666 162.404 13.2415V13.4995C162.404 14.3744 162.276 15.1858 162.022 15.9335C161.768 16.6813 161.398 17.3357 160.912 17.8965C160.426 18.4499 159.835 18.8836 159.14 19.1977C158.444 19.5043 157.655 19.6576 156.773 19.6576C155.883 19.6576 155.086 19.5043 154.384 19.1977C153.688 18.8836 153.097 18.4499 152.611 17.8965C152.125 17.3357 151.755 16.6813 151.501 15.9335C151.247 15.1858 151.119 14.3744 151.119 13.4995ZM153.823 13.2415V13.4995C153.823 14.0454 153.879 14.5613 153.991 15.0474C154.103 15.5335 154.279 15.9597 154.518 16.3261C154.757 16.6926 155.064 16.9805 155.438 17.1898C155.812 17.3992 156.257 17.5039 156.773 17.5039C157.274 17.5039 157.707 17.3992 158.074 17.1898C158.448 16.9805 158.754 16.6926 158.994 16.3261C159.233 15.9597 159.409 15.5335 159.521 15.0474C159.641 14.5613 159.7 14.0454 159.7 13.4995V13.2415C159.7 12.7031 159.641 12.1946 159.521 11.716C159.409 11.2299 159.229 10.7999 158.982 10.426C158.743 10.0521 158.437 9.7605 158.063 9.55112C157.696 9.33426 157.259 9.22583 156.75 9.22583C156.242 9.22583 155.801 9.33426 155.427 9.55112C155.06 9.7605 154.757 10.0521 154.518 10.426C154.279 10.7999 154.103 11.2299 153.991 11.716C153.879 12.1946 153.823 12.7031 153.823 13.2415Z" fill="#ADACA8"/>
<path d="M167.35 9.88763V19.4332H164.647V7.29652H167.193L167.35 9.88763ZM166.868 12.9162L165.993 12.905C166.001 12.045 166.12 11.2561 166.352 10.5382C166.591 9.82033 166.92 9.2034 167.339 8.68742C167.765 8.17144 168.274 7.77511 168.865 7.49842C169.455 7.21426 170.113 7.07218 170.839 7.07218C171.422 7.07218 171.949 7.15444 172.42 7.31895C172.899 7.47599 173.306 7.73398 173.643 8.09292C173.987 8.45186 174.249 8.91923 174.428 9.49504C174.608 10.0634 174.697 10.7625 174.697 11.5926V19.4332H171.983V11.5814C171.983 10.9981 171.897 10.5382 171.725 10.2017C171.56 9.85772 171.317 9.61468 170.996 9.4726C170.682 9.32304 170.289 9.24826 169.818 9.24826C169.354 9.24826 168.939 9.34548 168.573 9.5399C168.207 9.73433 167.896 9.9998 167.642 10.3363C167.395 10.6728 167.204 11.0617 167.07 11.5029C166.935 11.9441 166.868 12.4152 166.868 12.9162Z" fill="#ADACA8"/>
<path fill-rule="evenodd" clip-rule="evenodd" d="M30.6922 20.7046L33.5172 4.90867C33.772 3.48418 32.2635 2.39922 30.9941 3.09396L16.9177 10.7979C15.8055 11.4066 15.7096 12.9677 16.7389 13.708L27.9902 21.8C29.0195 22.5404 30.4689 21.9528 30.6922 20.7046ZM36.3439 5.41421C37.0233 1.61559 33.0005 -1.27763 29.6155 0.575013L15.5391 8.27896C12.5731 9.90224 12.3173 14.065 15.0623 16.0392L26.3135 24.1313C29.0585 26.1054 32.9236 24.5385 33.5188 21.2102L36.3439 5.41421Z" fill="#ADACA8"/>
<path fill-rule="evenodd" clip-rule="evenodd" d="M17.8465 20.7046L20.6716 4.90867C20.9264 3.48418 19.4179 2.39922 18.1485 3.09396L4.07212 10.7979C2.95987 11.4066 2.86396 12.9677 3.8933 13.708L15.1446 21.8C16.1739 22.5404 17.6233 21.9528 17.8465 20.7046ZM23.4983 5.41421C24.1777 1.61559 20.1549 -1.27763 16.7698 0.575013L2.69351 8.27896C-0.27248 9.90224 -0.528273 14.065 2.21667 16.0392L13.4679 24.1313C16.2129 26.1054 20.078 24.5385 20.6732 21.2102L23.4983 5.41421Z" fill="#ADACA8"/>
</svg>
