<svg width="163" height="27" viewBox="0 0 163 27" fill="none" xmlns="http://www.w3.org/2000/svg">
<path d="M34.4449 5.08344H37.4802L44.365 22.3326H41.1817L39.6024 18.3596H32.2981L30.7434 22.3326H27.5354L34.4449 5.08344ZM38.7387 15.7685L35.9502 8.4395L33.1617 15.7685H38.7387Z" fill="#ADACA8"/>
<path d="M50.5728 22.7027C49.7174 22.7027 48.8043 22.604 47.8337 22.4066C46.8631 22.2092 46.1063 21.9378 45.5634 21.5923V18.9518C46.205 19.3467 46.97 19.6675 47.8584 19.9142C48.7467 20.1446 49.5858 20.2597 50.3754 20.2597C51.1651 20.2597 51.7409 20.1939 52.1028 20.0623C52.4647 19.9142 52.6457 19.651 52.6457 19.2726C52.6457 18.9765 52.547 18.738 52.3496 18.557C52.1686 18.3596 51.8643 18.1869 51.4365 18.0388C51.0252 17.8743 50.3836 17.6769 49.5117 17.4466C48.5246 17.1669 47.7432 16.879 47.1674 16.5829C46.6081 16.2867 46.1803 15.9166 45.8842 15.4724C45.6045 15.0118 45.4647 14.4195 45.4647 13.6957C45.4647 12.5112 45.9336 11.6228 46.8713 11.0306C47.809 10.4219 49.0758 10.1175 50.6715 10.1175C51.4941 10.1175 52.3084 10.1998 53.1145 10.3643C53.9371 10.5124 54.5787 10.7262 55.0393 11.0059V13.5476C54.5458 13.2515 53.9453 13.0129 53.2379 12.832C52.5305 12.651 51.8067 12.5605 51.0664 12.5605C50.2603 12.5605 49.6516 12.6428 49.2403 12.8073C48.829 12.9554 48.6234 13.2515 48.6234 13.6957C48.6234 13.9918 48.7303 14.2303 48.9442 14.4113C49.1745 14.5758 49.4706 14.7239 49.8325 14.8555C50.1944 14.9706 50.8525 15.1516 51.8067 15.3984C52.8266 15.678 53.6245 15.9824 54.2003 16.3114C54.7761 16.6404 55.1874 17.0353 55.4342 17.4959C55.6809 17.9565 55.8043 18.5323 55.8043 19.2233C55.8043 20.2762 55.3519 21.1234 54.4471 21.765C53.5587 22.3902 52.2673 22.7027 50.5728 22.7027Z" fill="#ADACA8"/>
<path d="M62.2606 22.7027C61.4051 22.7027 60.4921 22.604 59.5215 22.4066C58.5508 22.2092 57.7941 21.9378 57.2512 21.5923V18.9518C57.8928 19.3467 58.6578 19.6675 59.5462 19.9142C60.4345 20.1446 61.2735 20.2597 62.0632 20.2597C62.8529 20.2597 63.4287 20.1939 63.7906 20.0623C64.1525 19.9142 64.3335 19.651 64.3335 19.2726C64.3335 18.9765 64.2348 18.738 64.0373 18.557C63.8564 18.3596 63.552 18.1869 63.1243 18.0388C62.713 17.8743 62.0714 17.6769 61.1995 17.4466C60.2124 17.1669 59.431 16.879 58.8552 16.5829C58.2959 16.2867 57.8681 15.9166 57.572 15.4724C57.2923 15.0118 57.1525 14.4195 57.1525 13.6957C57.1525 12.5112 57.6214 11.6228 58.5591 11.0306C59.4968 10.4219 60.7635 10.1175 62.3593 10.1175C63.1819 10.1175 63.9962 10.1998 64.8023 10.3643C65.6249 10.5124 66.2665 10.7262 66.7271 11.0059V13.5476C66.2336 13.2515 65.6331 13.0129 64.9257 12.832C64.2183 12.651 63.4945 12.5605 62.7541 12.5605C61.948 12.5605 61.3393 12.6428 60.9281 12.8073C60.5168 12.9554 60.3111 13.2515 60.3111 13.6957C60.3111 13.9918 60.4181 14.2303 60.6319 14.4113C60.8623 14.5758 61.1584 14.7239 61.5203 14.8555C61.8822 14.9706 62.5403 15.1516 63.4945 15.3984C64.5144 15.678 65.3123 15.9824 65.8881 16.3114C66.4639 16.6404 66.8752 17.0353 67.122 17.4959C67.3687 17.9565 67.4921 18.5323 67.4921 19.2233C67.4921 20.2762 67.0397 21.1234 66.1349 21.765C65.2465 22.3902 63.9551 22.7027 62.2606 22.7027Z" fill="#ADACA8"/>
<path d="M76.0396 22.7027C74.6577 22.7027 73.4403 22.456 72.3874 21.9624C71.351 21.4524 70.5448 20.7286 69.9691 19.7909C69.3933 18.8367 69.1054 17.7098 69.1054 16.4101C69.1054 15.1434 69.385 14.0411 69.9444 13.1034C70.5202 12.1493 71.3345 11.4172 72.3874 10.9072C73.4403 10.3807 74.6577 10.1175 76.0396 10.1175C77.4215 10.1175 78.6306 10.3807 79.6671 10.9072C80.7199 11.4172 81.5343 12.1493 82.1101 13.1034C82.6859 14.0411 82.9738 15.1434 82.9738 16.4101C82.9738 17.7098 82.6859 18.8367 82.1101 19.7909C81.5343 20.7286 80.7199 21.4524 79.6671 21.9624C78.6306 22.456 77.4215 22.7027 76.0396 22.7027ZM76.0396 20.2597C77.1747 20.2597 78.0795 19.906 78.754 19.1986C79.4285 18.4748 79.7658 17.5453 79.7658 16.4101C79.7658 15.2092 79.4285 14.2715 78.754 13.597C78.096 12.906 77.1912 12.5605 76.0396 12.5605C74.888 12.5605 73.9749 12.906 73.3004 13.597C72.6424 14.2715 72.3134 15.2092 72.3134 16.4101C72.3134 17.5453 72.6506 18.4748 73.3251 19.1986C73.9996 19.906 74.9044 20.2597 76.0396 20.2597Z" fill="#ADACA8"/>
<path d="M91.5108 22.7027C90.1289 22.7027 88.9115 22.456 87.8586 21.9624C86.8222 21.4689 86.0161 20.7533 85.4403 19.8155C84.8645 18.8778 84.5766 17.7509 84.5766 16.4348C84.5766 15.1187 84.8645 13.9918 85.4403 13.0541C86.0325 12.0999 86.8469 11.376 87.8833 10.8825C88.9362 10.3725 90.1618 10.1175 91.5602 10.1175C93.4027 10.1175 94.8751 10.4795 95.9773 11.2033V13.6957C94.908 12.9389 93.5425 12.5605 91.881 12.5605C90.6142 12.5605 89.6025 12.8813 88.8457 13.5229C88.1054 14.1481 87.7353 15.1187 87.7353 16.4348C87.7353 17.7345 88.1054 18.6969 88.8457 19.322C89.6025 19.9472 90.5978 20.2597 91.8316 20.2597C93.4932 20.2597 94.9245 19.8649 96.1254 19.0752V21.5429C95.5332 21.9378 94.8586 22.2257 94.1019 22.4066C93.3616 22.604 92.4979 22.7027 91.5108 22.7027Z" fill="#ADACA8"/>
<path d="M100.341 8.41482C99.8479 8.41482 99.4284 8.25031 99.083 7.92128C98.7539 7.59226 98.5894 7.18097 98.5894 6.68744C98.5894 6.1939 98.7539 5.78262 99.083 5.45359C99.4284 5.10812 99.8479 4.93538 100.341 4.93538C100.835 4.93538 101.255 5.10812 101.6 5.45359C101.945 5.78262 102.118 6.1939 102.118 6.68744C102.118 7.18097 101.945 7.59226 101.6 7.92128C101.255 8.25031 100.835 8.41482 100.341 8.41482ZM98.7622 10.4877H101.921V22.3326H98.7622V10.4877Z" fill="#ADACA8"/>
<path d="M109.415 22.7027C108 22.7027 106.84 22.3326 105.936 21.5923C105.031 20.8355 104.578 19.8238 104.578 18.557C104.578 17.2409 105.006 16.2127 105.862 15.4724C106.717 14.7321 107.918 14.3619 109.464 14.3619C110.961 14.3619 112.253 14.6663 113.339 15.275V14.9542C113.339 14.1152 113.075 13.5065 112.549 13.1281C112.039 12.7497 111.208 12.5605 110.057 12.5605C109.333 12.5605 108.617 12.6346 107.91 12.7826C107.202 12.9142 106.577 13.1034 106.034 13.3502V10.9072C106.528 10.6769 107.186 10.4877 108.008 10.3396C108.847 10.1916 109.654 10.1175 110.427 10.1175C112.483 10.1175 114.005 10.5617 114.992 11.4501C115.979 12.322 116.473 13.5394 116.473 15.1023V22.3326H113.536V21.1728C113.026 21.6663 112.442 22.0447 111.784 22.3079C111.142 22.5711 110.353 22.7027 109.415 22.7027ZM110.18 20.4325C110.871 20.4325 111.496 20.3009 112.055 20.0376C112.615 19.758 113.043 19.3796 113.339 18.9025V17.5946C112.434 16.953 111.397 16.6322 110.229 16.6322C108.568 16.6322 107.737 17.2738 107.737 18.557C107.737 19.1822 107.943 19.651 108.354 19.9636C108.782 20.2762 109.39 20.4325 110.18 20.4325Z" fill="#ADACA8"/>
<path d="M123.45 22.7027C122.151 22.7027 121.164 22.3408 120.489 21.617C119.814 20.8931 119.477 19.8731 119.477 18.557V12.8567H117.701V10.4877H119.477V6.93421H122.587V10.4877H125.424V12.8567H122.587V18.1622C122.587 18.9189 122.726 19.4618 123.006 19.7909C123.286 20.1034 123.796 20.2597 124.536 20.2597C125.046 20.2597 125.548 20.1446 126.041 19.9142V22.2832C125.334 22.5629 124.47 22.7027 123.45 22.7027Z" fill="#ADACA8"/>
<path d="M130.007 8.41482C129.513 8.41482 129.094 8.25031 128.748 7.92128C128.419 7.59226 128.255 7.18097 128.255 6.68744C128.255 6.1939 128.419 5.78262 128.748 5.45359C129.094 5.10812 129.513 4.93538 130.007 4.93538C130.5 4.93538 130.92 5.10812 131.265 5.45359C131.611 5.78262 131.783 6.1939 131.783 6.68744C131.783 7.18097 131.611 7.59226 131.265 7.92128C130.92 8.25031 130.5 8.41482 130.007 8.41482ZM128.427 10.4877H131.586V22.3326H128.427V10.4877Z" fill="#ADACA8"/>
<path d="M141.178 22.7027C139.796 22.7027 138.579 22.456 137.526 21.9624C136.489 21.4524 135.683 20.7286 135.107 19.7909C134.532 18.8367 134.244 17.7098 134.244 16.4101C134.244 15.1434 134.523 14.0411 135.083 13.1034C135.658 12.1493 136.473 11.4172 137.526 10.9072C138.579 10.3807 139.796 10.1175 141.178 10.1175C142.56 10.1175 143.769 10.3807 144.805 10.9072C145.858 11.4172 146.673 12.1493 147.248 13.1034C147.824 14.0411 148.112 15.1434 148.112 16.4101C148.112 17.7098 147.824 18.8367 147.248 19.7909C146.673 20.7286 145.858 21.4524 144.805 21.9624C143.769 22.456 142.56 22.7027 141.178 22.7027ZM141.178 20.2597C142.313 20.2597 143.218 19.906 143.892 19.1986C144.567 18.4748 144.904 17.5453 144.904 16.4101C144.904 15.2092 144.567 14.2715 143.892 13.597C143.234 12.906 142.329 12.5605 141.178 12.5605C140.026 12.5605 139.113 12.906 138.439 13.597C137.781 14.2715 137.452 15.2092 137.452 16.4101C137.452 17.5453 137.789 18.4748 138.463 19.1986C139.138 19.906 140.043 20.2597 141.178 20.2597Z" fill="#ADACA8"/>
<path d="M150.57 10.4877H153.581V12.0917C154.14 11.4172 154.806 10.9236 155.579 10.6111C156.353 10.282 157.167 10.1175 158.022 10.1175C159.618 10.1175 160.811 10.5535 161.6 11.4254C162.39 12.2809 162.785 13.4242 162.785 14.8555V22.3326H159.676V15.1516C159.676 13.4242 158.87 12.5605 157.257 12.5605C156.55 12.5605 155.884 12.7333 155.259 13.0787C154.633 13.4078 154.107 13.9095 153.679 14.584V22.3326H150.57V10.4877Z" fill="#ADACA8"/>
<path d="M8.78976 1.42539C9.36573 0.19021 10.834 -0.34418 12.0691 0.231792C13.3043 0.807764 13.8387 2.27599 13.2627 3.51117C12.6868 4.74634 11.2185 5.28074 9.98335 4.70476C8.74818 4.12879 8.21379 2.66056 8.78976 1.42539Z" fill="#ADACA8"/>
<path d="M9.39258 23.4888C9.96855 22.2537 11.4368 21.7193 12.672 22.2952C13.9071 22.8712 14.4415 24.3394 13.8655 25.5746C13.2896 26.8098 11.8213 27.3442 10.5862 26.7682C9.351 26.1922 8.8166 24.724 9.39258 23.4888Z" fill="#ADACA8"/>
<path d="M5.66109 8.13484C6.23706 6.89967 7.70529 6.36528 8.94046 6.94125C10.1756 7.51722 10.71 8.98545 10.1341 10.2206L4.91961 21.4031C4.34363 22.6382 2.87541 23.1726 1.64023 22.5966C0.405054 22.0207 -0.129337 20.5524 0.446636 19.3173L5.66109 8.13484Z" fill="#ADACA8"/>
<path d="M17.7357 5.59695C18.3117 4.36177 19.7799 3.82738 21.0151 4.40335C22.2503 4.97933 22.7846 6.44755 22.2087 7.68273L16.9942 18.8652C16.4182 20.1003 14.95 20.6347 13.7148 20.0588C12.4797 19.4828 11.9453 18.0146 12.5212 16.7794L17.7357 5.59695Z" fill="#ADACA8"/>
</svg>
